<?xml version="1.0" encoding="iso-8859-1"?>
<!-- Generator: Adobe Illustrator 19.0.0, SVG Export Plug-In . SVG Version: 6.00 Build 0)  -->
<svg xmlns="http://www.w3.org/2000/svg" xmlns:xlink="http://www.w3.org/1999/xlink" version="1.1" id="Capa_1" x="0px" y="0px" viewBox="0 0 512 512" style="enable-background:new 0 0 512 512;" xml:space="preserve" width="512px" height="512px">
<g>
	<g>
		<path d="M452,0h-91c-33.084,0-60,26.916-60,60v257h-30V60h-30V0H30v60H0v452h512V60C512,26.916,485.084,0,452,0z M60,30h151v30H60    V30z M181,482H90V347h91V482z M241,482h-30V317H60v165H30V90h211V482z M482,482H271V347h211V482z M482,317H331v-77.239    L368.791,287h75.418L482,239.761V317z M347.209,212h118.582l-36,45h-46.582L347.209,212z M482,182H331V90h151V182z M331,60    c0-16.542,13.458-30,30-30h91c16.542,0,30,13.458,30,30H331z" fill="#5687a5"/>
	</g>
</g>
<g>
	<g>
		<rect x="60" y="120" width="151" height="30" fill="#5687a5"/>
	</g>
</g>
<g>
</g>
<g>
</g>
<g>
</g>
<g>
</g>
<g>
</g>
<g>
</g>
<g>
</g>
<g>
</g>
<g>
</g>
<g>
</g>
<g>
</g>
<g>
</g>
<g>
</g>
<g>
</g>
<g>
</g>
</svg>
