<?xml version="1.0" encoding="iso-8859-1"?>
<!-- Generator: Adobe Illustrator 19.0.0, SVG Export Plug-In . SVG Version: 6.00 Build 0)  -->
<svg xmlns="http://www.w3.org/2000/svg" xmlns:xlink="http://www.w3.org/1999/xlink" version="1.1" id="Capa_1" x="0px" y="0px" viewBox="0 0 512 512" style="enable-background:new 0 0 512 512;" xml:space="preserve" width="512px" height="512px">
<g>
	<g>
		<path d="M256,0c-41.355,0-75,33.645-75,75c0,26.143,8.975,51.799,25.271,72.242l49.268,61.803l50.105-61.697l0.085-0.106    C322.025,126.799,331,101.143,331,75C331,33.645,297.355,0,256,0z M282.313,128.489l-26.558,32.701l-26.026-32.648    C217.652,113.391,211,94.376,211,75c0-24.813,20.187-45,45-45s45,20.187,45,45C301,94.353,294.364,113.346,282.313,128.489z" fill="#5687a5"/>
	</g>
</g>
<g>
	<g>
		<path d="M305.729,364.758l-50.19-61.803l-49.268,61.803C189.975,385.2,181,410.857,181,437c0,41.355,33.645,75,75,75    s75-33.645,75-75C331,410.857,322.025,385.2,305.729,364.758z M256,482c-24.813,0-45-20.187-45-45    c0-19.376,6.652-38.391,18.729-53.542l26.026-32.648l26.555,32.698C294.363,398.651,301,417.645,301,437    C301,461.813,280.813,482,256,482z" fill="#5687a5"/>
	</g>
</g>
<g>
	<g>
		<path d="M147.242,206.272C126.8,189.975,101.144,181,75,181c-41.355,0-75,33.645-75,75s33.645,75,75,75    c26.144,0,51.8-8.975,72.242-25.271l61.803-50.19L147.242,206.272z M128.49,282.311C113.348,294.363,94.354,301,75,301    c-24.813,0-45-20.187-45-45s20.187-45,45-45c19.376,0,38.391,6.652,53.542,18.729l32.648,26.026L128.49,282.311z" fill="#5687a5"/>
	</g>
</g>
<g>
	<g>
		<path d="M437,181c-26.144,0-51.8,8.975-72.242,25.271l-61.803,50.19l61.803,49.267C385.2,322.025,410.856,331,437,331    c41.355,0,75-33.645,75-75C512,214.645,478.355,181,437,181z M437,301c-19.376,0-38.391-6.652-53.542-18.729l-32.648-26.026    l32.7-26.556C398.652,217.637,417.646,211,437,211c24.813,0,45,20.187,45,45S461.813,301,437,301z" fill="#5687a5"/>
	</g>
</g>
<g>
	<g>
		<path d="M147.466,95.052c-2.081-18.44-10.454-35.821-23.575-48.943C113.503,35.721,99.691,30,85,30s-28.502,5.721-38.891,16.109    C35.721,56.497,30,70.309,30,85s5.721,28.503,16.109,38.891c13.122,13.122,30.504,21.494,48.943,23.575l59.02,6.12L147.466,95.052    z M98.353,117.647c-11.692-1.334-22.709-6.649-31.031-14.971C62.601,97.956,60,91.678,60,85s2.601-12.956,7.322-17.678    C72.044,62.601,78.322,60,85,60s12.956,2.6,17.678,7.322c8.336,8.336,13.656,19.379,14.978,31.094l2.424,21.484L98.353,117.647z" fill="#5687a5"/>
	</g>
</g>
<g>
	<g>
		<path d="M95.053,364.534c-18.44,2.081-35.822,10.453-48.944,23.575C35.721,398.497,30,412.309,30,427    c0,14.691,5.721,28.503,16.109,38.891S70.309,482,85,482s28.503-5.721,38.891-16.109c13.122-13.122,21.495-30.503,23.576-48.943    l6.12-59.02L95.053,364.534z M117.649,413.646c-1.334,11.692-6.649,22.711-14.971,31.032C97.956,449.4,91.678,452,85,452    s-12.956-2.601-17.678-7.323C62.601,439.956,60,433.678,60,427c0-6.678,2.601-12.956,7.322-17.678    c8.337-8.336,19.379-13.656,31.094-14.978l21.485-2.424L117.649,413.646z" fill="#5687a5"/>
	</g>
</g>
<g>
	<g>
		<path d="M465.891,46.109C455.502,35.721,441.691,30,427,30c-14.691,0-28.503,5.721-38.891,16.109    c-13.122,13.122-21.495,30.503-23.576,48.943l-6.606,58.534l58.885-6.105l0.136-0.015c18.439-2.081,35.821-10.454,48.943-23.575    C476.279,113.503,482,99.691,482,85S476.279,56.497,465.891,46.109z M444.678,102.678c-8.322,8.322-19.339,13.637-31.031,14.971    l-21.727,2.252l2.424-21.484c1.322-11.715,6.642-22.758,14.979-31.094C414.044,62.6,420.322,60,427,60    c6.678,0,12.956,2.6,17.678,7.322C449.399,72.044,452,78.322,452,85S449.399,97.956,444.678,102.678z" fill="#5687a5"/>
	</g>
</g>
<g>
	<g>
		<path d="M465.891,388.109c-13.122-13.122-30.504-21.494-48.943-23.575l-58.534-6.606l6.105,58.885l0.015,0.135    c2.081,18.44,10.454,35.822,23.575,48.943C398.497,476.279,412.309,482,427,482c14.691,0,28.502-5.721,38.891-16.109    S482,441.691,482,427C482,412.309,476.279,398.497,465.891,388.109z M444.678,444.677c-4.722,4.722-11,7.323-17.678,7.323    c-6.678,0-12.956-2.6-17.678-7.323c-8.322-8.322-13.637-19.34-14.971-31.032l-2.252-21.726l21.484,2.425    c11.715,1.322,22.757,6.642,31.094,14.978c4.722,4.722,7.322,11,7.322,17.678C451.999,433.678,449.399,439.956,444.678,444.677z" fill="#5687a5"/>
	</g>
</g>
<g>
	<g>
		<path d="M256,226c-16.542,0-30,13.458-30,30s13.458,30,30,30s30-13.458,30-30S272.542,226,256,226z" fill="#5687a5"/>
	</g>
</g>
<g>
</g>
<g>
</g>
<g>
</g>
<g>
</g>
<g>
</g>
<g>
</g>
<g>
</g>
<g>
</g>
<g>
</g>
<g>
</g>
<g>
</g>
<g>
</g>
<g>
</g>
<g>
</g>
<g>
</g>
</svg>
