<?xml version="1.0" encoding="iso-8859-1"?>
<!-- Generator: Adobe Illustrator 19.0.0, SVG Export Plug-In . SVG Version: 6.00 Build 0)  -->
<svg xmlns="http://www.w3.org/2000/svg" xmlns:xlink="http://www.w3.org/1999/xlink" version="1.1" id="Layer_1" x="0px" y="0px" viewBox="0 0 512.001 512.001" style="enable-background:new 0 0 512.001 512.001;" xml:space="preserve" width="512px" height="512px">
<g>
	<g>
		<g>
			<rect x="215.981" width="80.055" height="15.646" fill="#5687a5"/>
			<path d="M356.076,160.114h-16.011c-6.723,0-12.192-5.469-12.192-12.191v-40.029c0-15.35-12.488-27.837-27.837-27.837     c-6.721,0-12.191-5.469-12.191-12.191V24.017h-63.681v43.849c0,6.721-5.469,12.191-12.191,12.191     c-15.35,0-27.838,12.489-27.838,27.837v40.029c0,6.721-5.469,12.191-12.191,12.191H155.93c-15.35,0-27.837,12.489-27.837,27.838     v285.381c0,21.321,17.346,38.668,38.668,38.668h178.481c21.321,0,38.668-17.346,38.668-38.668V187.951     C383.913,172.602,371.425,160.114,356.076,160.114z M143.741,263.823h224.525V280.2H143.741V263.823z M143.741,295.845h224.525     v80.423H143.741V295.845z M143.741,391.915h224.525v16.377H143.741V391.915z M345.245,496.354H166.763     c-12.694,0-23.022-10.327-23.022-23.022v-49.394h224.525v49.394h0C368.267,486.027,357.939,496.354,345.245,496.354z      M368.27,248.177H143.741v-60.226c0-6.723,5.469-12.192,12.191-12.192h16.011c15.35,0,27.837-12.488,27.837-27.837v-40.029     c0-6.723,5.469-12.191,12.192-12.191c15.35,0,27.837-12.488,27.837-27.837V39.663H272.2v28.202     c0,15.35,12.488,27.837,27.837,27.837c6.722,0,12.191,5.469,12.191,12.191v40.029c0,15.35,12.489,27.837,27.838,27.837h16.011     c6.721,0,12.191,5.469,12.191,12.192V248.177z" fill="#5687a5"/>
			<rect x="199.96" y="312.221" width="112.078" height="15.646" fill="#5687a5"/>
			<rect x="215.981" y="344.244" width="16.011" height="15.646" fill="#5687a5"/>
			<rect x="247.993" y="344.244" width="16.012" height="15.646" fill="#5687a5"/>
			<rect x="280.025" y="344.244" width="16.011" height="15.646" fill="#5687a5"/>
		</g>
	</g>
</g>
<g>
</g>
<g>
</g>
<g>
</g>
<g>
</g>
<g>
</g>
<g>
</g>
<g>
</g>
<g>
</g>
<g>
</g>
<g>
</g>
<g>
</g>
<g>
</g>
<g>
</g>
<g>
</g>
<g>
</g>
</svg>
